<svg id="Layer_1" enable-background="new 0 0 511.428 511.428" height="512" viewBox="0 0 511.428 511.428" width="512" xmlns="http://www.w3.org/2000/svg"><g><path d="m59.381 0v423.728l196.333 87.701 196.333-87.701v-423.728zm362.666 404.272-166.333 74.3-166.333-74.3v-374.272h332.666z"/><path d="m174.28 209.665h30v-102.593h28.444v-30h-86.658v30h28.214z"/><path d="m305.066 209.665c36.556 0 66.297-29.741 66.297-66.297s-29.741-66.297-66.297-66.297-66.297 29.741-66.297 66.297c0 36.557 29.741 66.297 66.297 66.297zm0-102.593c20.014 0 36.297 16.283 36.297 36.297s-16.283 36.297-36.297 36.297-36.297-16.283-36.297-36.297c0-20.015 16.283-36.297 36.297-36.297z"/><path d="m135.073 369.133s35.979-.138 44.029-.279c31.358-.548 54.118-27.699 54.118-64.558 0-17.377-4.548-32.646-13.153-44.157-9.94-13.298-24.875-20.622-42.052-20.622h-43.226zm42.942-99.616c5.913 0 25.205 2.508 25.205 34.779 0 23.578-12.376 34.348-24.641 34.563-3.181.055-8.452.101-13.61.137-.036-11.583-.104-57.432-.125-69.479z"/><path d="m316.314 237.999c-36.556 0-66.297 29.741-66.297 66.297s29.741 66.297 66.297 66.297 66.297-29.741 66.297-66.297-29.74-66.297-66.297-66.297zm0 102.594c-20.014 0-36.297-16.283-36.297-36.297s16.283-36.297 36.297-36.297 36.297 16.283 36.297 36.297-16.282 36.297-36.297 36.297z"/></g></svg>